REM DIRINDEX 1\5,1\2\6,1\2\7,1\3\8,1\3\9,1\4\10,1\4\11,1\4\12
REM DIRNAME folder01,folder02,folder03,folder04,folder05,folder06,folder07,folder08,folder09,folder10,folder11,folder12
TITLE ""
FILE "EJE_DB3000_5th_5C_18.mp3" MP3
  TRACK 01 AUDIO
    TITLE "0:"
    INDEX 01 00:00:00
  TRACK 02 AUDIO
    TITLE "10:cjc026_10824"
    INDEX 01 00:00:05
  TRACK 03 AUDIO
    TITLE "0:"
    INDEX 01 00:00:72
  TRACK 04 AUDIO
    TITLE "11:cjc026_10825"
    INDEX 01 00:01:24
  TRACK 05 AUDIO
    TITLE "0:"
    INDEX 01 00:02:08
  TRACK 06 AUDIO
    TITLE "12:cjc026_10826"
    INDEX 01 00:02:32
  TRACK 07 AUDIO
    TITLE "0:"
    INDEX 01 00:03:23
  TRACK 08 AUDIO
    TITLE "10:cjc026_10827"
    INDEX 01 00:03:49
  TRACK 09 AUDIO
    TITLE "0:"
    INDEX 01 00:04:36
  TRACK 10 AUDIO
    TITLE "11:cjc026_10828"
    INDEX 01 00:04:62
  TRACK 11 AUDIO
    TITLE "0:"
    INDEX 01 00:05:50
  TRACK 12 AUDIO
    TITLE "12:cjc026_10829"
    INDEX 01 00:06:02
  TRACK 13 AUDIO
    TITLE "0:"
    INDEX 01 00:06:65
  TRACK 14 AUDIO
    TITLE "10:cjc026_10830"
    INDEX 01 00:07:13
  TRACK 15 AUDIO
    TITLE "0:"
    INDEX 01 00:08:05
  TRACK 16 AUDIO
    TITLE "11:cjc026_10831"
    INDEX 01 00:08:30
  TRACK 17 AUDIO
    TITLE "0:"
    INDEX 01 00:09:14
  TRACK 18 AUDIO
    TITLE "12:cjc026_10832"
    INDEX 01 00:09:40
  TRACK 19 AUDIO
    TITLE "0:"
    INDEX 01 00:10:29
  TRACK 20 AUDIO
    TITLE "10:cjc026_10833"
    INDEX 01 00:10:57
  TRACK 21 AUDIO
    TITLE "0:"
    INDEX 01 00:11:48
  TRACK 22 AUDIO
    TITLE "11:cjc026_10834"
    INDEX 01 00:11:74
  TRACK 23 AUDIO
    TITLE "0:"
    INDEX 01 00:12:63
  TRACK 24 AUDIO
    TITLE "12:cjc026_10835"
    INDEX 01 00:13:16
  TRACK 25 AUDIO
    TITLE "0:"
    INDEX 01 00:14:07
  TRACK 26 AUDIO
    TITLE "10:cjc026_10836"
    INDEX 01 00:14:33
  TRACK 27 AUDIO
    TITLE "0:"
    INDEX 01 00:15:28
  TRACK 28 AUDIO
    TITLE "11:cjc026_10837"
    INDEX 01 00:15:54
  TRACK 29 AUDIO
    TITLE "0:"
    INDEX 01 00:16:55
  TRACK 30 AUDIO
    TITLE "12:cjc026_10838"
    INDEX 01 00:17:06
  TRACK 31 AUDIO
    TITLE "0:"
    INDEX 01 00:18:03
  TRACK 32 AUDIO
    TITLE "10:cjc026_10839"
    INDEX 01 00:18:29
  TRACK 33 AUDIO
    TITLE "0:"
    INDEX 01 00:19:18
  TRACK 34 AUDIO
    TITLE "11:cjc026_10840"
    INDEX 01 00:19:46
  TRACK 35 AUDIO
    TITLE "0:"
    INDEX 01 00:21:08
  TRACK 36 AUDIO
    TITLE "12:cjc026_10841"
    INDEX 01 00:21:33
  TRACK 37 AUDIO
    TITLE "0:"
    INDEX 01 00:22:21
  TRACK 38 AUDIO
    TITLE "10:cjc026_10842"
    INDEX 01 00:22:48
  TRACK 39 AUDIO
    TITLE "0:"
    INDEX 01 00:23:34
  TRACK 40 AUDIO
    TITLE "11:cjc026_10843"
    INDEX 01 00:23:65
  TRACK 41 AUDIO
    TITLE "0:"
    INDEX 01 00:24:69
  TRACK 42 AUDIO
    TITLE "12:cjc026_10844"
    INDEX 01 00:25:21
  TRACK 43 AUDIO
    TITLE "0:"
    INDEX 01 00:26:05
  TRACK 44 AUDIO
    TITLE "10:cjc026_10845"
    INDEX 01 00:26:38
  TRACK 45 AUDIO
    TITLE "0:"
    INDEX 01 00:27:28
  TRACK 46 AUDIO
    TITLE "11:cjc026_10846"
    INDEX 01 00:27:53
  TRACK 47 AUDIO
    TITLE "0:"
    INDEX 01 00:28:39
  TRACK 48 AUDIO
    TITLE "12:cjc026_10847"
    INDEX 01 00:28:66
  TRACK 49 AUDIO
    TITLE "0:"
    INDEX 01 00:29:56
  TRACK 50 AUDIO
    TITLE "10:cjc026_10848"
    INDEX 01 00:30:06
  TRACK 51 AUDIO
    TITLE "0:"
    INDEX 01 00:31:00
  TRACK 52 AUDIO
    TITLE "11:cjc026_10849"
    INDEX 01 00:31:26
  TRACK 53 AUDIO
    TITLE "0:"
    INDEX 01 00:32:17
  TRACK 54 AUDIO
    TITLE "12:cjc026_10850"
    INDEX 01 00:32:41
  TRACK 55 AUDIO
    TITLE "0:"
    INDEX 01 00:33:36
  TRACK 56 AUDIO
    TITLE "10:cjc026_10851"
    INDEX 01 00:33:60
  TRACK 57 AUDIO
    TITLE "0:"
    INDEX 01 00:34:55
  TRACK 58 AUDIO
    TITLE "11:cjc026_10852"
    INDEX 01 00:35:08
  TRACK 59 AUDIO
    TITLE "0:"
    INDEX 01 00:36:01
  TRACK 60 AUDIO
    TITLE "12:cjc026_10853"
    INDEX 01 00:36:27
  TRACK 61 AUDIO
    TITLE "0:"
    INDEX 01 00:37:20
  TRACK 62 AUDIO
    TITLE "10:cjc026_10854"
    INDEX 01 00:37:48
  TRACK 63 AUDIO
    TITLE "0:"
    INDEX 01 00:38:43
  TRACK 64 AUDIO
    TITLE "11:cjc026_10855"
    INDEX 01 00:38:69
  TRACK 65 AUDIO
    TITLE "0:"
    INDEX 01 00:39:58
  TRACK 66 AUDIO
    TITLE "12:cjc026_10856"
    INDEX 01 00:40:09
  TRACK 67 AUDIO
    TITLE "0:"
    INDEX 01 00:41:04
  TRACK 68 AUDIO
    TITLE "10:cjc026_10857"
    INDEX 01 00:41:30
  TRACK 69 AUDIO
    TITLE "0:"
    INDEX 01 00:42:21
  TRACK 70 AUDIO
    TITLE "11:cjc026_10858"
    INDEX 01 00:42:49
  TRACK 71 AUDIO
    TITLE "0:"
    INDEX 01 00:43:46
  TRACK 72 AUDIO
    TITLE "12:cjc026_10859"
    INDEX 01 00:43:72
  TRACK 73 AUDIO
    TITLE "0:"
    INDEX 01 00:44:63
  TRACK 74 AUDIO
    TITLE "10:cjc026_10860"
    INDEX 01 00:45:16
  TRACK 75 AUDIO
    TITLE "0:"
    INDEX 01 00:46:11
  TRACK 76 AUDIO
    TITLE "11:cjc026_10861"
    INDEX 01 00:46:39
  TRACK 77 AUDIO
    TITLE "0:"
    INDEX 01 00:47:44
  TRACK 78 AUDIO
    TITLE "12:cjc026_10862"
    INDEX 01 00:47:70
  TRACK 79 AUDIO
    TITLE "0:"
    INDEX 01 00:48:65
